<svg xmlns="http://www.w3.org/2000/svg" viewBox="0 0 256 256">
  <defs>
    <radialGradient id="glow" cx="50%" cy="50%" r="50%">
      <stop offset="0%" style="stop-color:#8C63FF;stop-opacity:0.4"/>
      <stop offset="50%" style="stop-color:#6677FF;stop-opacity:0.2"/>
      <stop offset="100%" style="stop-color:#050812;stop-opacity:0"/>
    </radialGradient>
  </defs>
  <circle cx="128" cy="128" r="128" fill="#050812"/>
  <circle cx="128" cy="128" r="110" fill="url(#glow)"/>
  <path d="M128 70c-20 0-36 10-36 24 0 12 8 18 24 22l20 5c20 5 32 14 32 32 0 22-20 38-44 38-18 0-34-8-42-20l14-12c6 8 16 14 28 14 14 0 24-8 24-18 0-10-8-16-22-20l-20-5c-22-5-34-16-34-32 0-22 20-38 42-38 16 0 30 6 38 16l-12 12c-6-6-14-10-24-10z" fill="#FFFFFF"/>
</svg>